<?xml version="1.0" encoding="utf-8"?>
<!-- Generator: Adobe Illustrator 28.2.0, SVG Export Plug-In . SVG Version: 6.00 Build 0)  -->
<svg version="1.1" id="Layer_1" xmlns="http://www.w3.org/2000/svg" xmlns:xlink="http://www.w3.org/1999/xlink" x="0px" y="0px"
	 viewBox="0 0 600 600" style="enable-background:new 0 0 600 600;" xml:space="preserve">
<style type="text/css">
	.st0{fill:#FFFFFF;}
	.st1{fill:#F2822D;}
</style>
<g>
	<rect x="1.3" y="-0.4" class="st0" width="599.2" height="599.2"/>
	<path class="st1" d="M401.8,272.1c-25.8-0.1-60.9,11.4-97.9,30.4l-0.1,0c-25.8,13.9-47.5,12.9-62.9,9.8
		c-51.1-10-25.9-75.2,56.3-145.5c19.3-16.5,39.9-31.7,61-45.3c-36.5,18.6-75.2,43.9-109.7,73c-81.2,68.4-109.6,132.1-63.5,142.2
		c21.1,4.7,54-2.8,91.3-18.5l0.5-0.1c25.7-10.1,49.7-16.4,69.3-16.6c62.6-0.7,56.9,56.6-12.9,127.9c-16.4,16.7-34.7,32.7-54.2,47.4
		c35.4-21.4,71.1-48.6,100.6-78.3C448.8,329,458.7,272.4,401.8,272.1"/>
	<path class="st1" d="M516.8,68.5H70.1v461.5h461.5V68.5H516.8 M502.1,98c0,26.6,0,376,0,402.5c-26.5,0-376,0-402.6,0
		c0-26.5,0-376,0-402.5C126.1,98,475.6,98,502.1,98z"/>
</g>
</svg>
