<?xml version="1.0" encoding="utf-8"?>
<!-- Generator: Adobe Illustrator 28.1.0, SVG Export Plug-In . SVG Version: 6.00 Build 0)  -->
<svg version="1.1" id="Layer_1" xmlns="http://www.w3.org/2000/svg" xmlns:xlink="http://www.w3.org/1999/xlink" x="0px" y="0px"
	 viewBox="0 0 426 426" style="enable-background:new 0 0 426 426;" xml:space="preserve">
<style type="text/css">
	
		.st0{clip-path:url(#SVGID_00000009564205427106099470000010929418906043663020_);fill:url(#SVGID_00000120544947520735201710000003705414863800198294_);}
	
		.st1{clip-path:url(#SVGID_00000039114501663117326590000006888558825698463398_);fill:url(#SVGID_00000128469265062500050980000014133092543293377922_);}
</style>
<g>
	<defs>
		<path id="SVGID_1_" d="M101,135.3l56.8-11.2l-15.4,48.3c-13,41.9-19.4,70.7-19.2,86.5c-0.2,6.5,1.8,13,5.6,18.3
			c3.1,4.4,8.2,7.1,13.7,7c11.5-0.1,22.9-9.2,34.2-27.2c0-24,3.8-47.8,11.5-70.5l4.1-14.2l57.7-11.2l-10.3,36.7
			c-7.5,24.1-11.2,43.1-11,57.1c-0.3,7.2,1.8,14.3,5.8,20.2c3.4,4.8,9.1,7.6,15,7.4c8-0.2,15.6-3.3,21.5-8.7
			c8.5-7.7,16.1-16.3,22.6-25.7c-7.6-13.2-11.7-28-11.9-43.2c-0.6-20.3,4.8-40.3,15.5-57.5c10.6-16.7,22.7-25.2,36.2-25.3
			c9.4-0.1,14.1,6.9,14.3,21c0.4,30.4-11,64.9-34,103.6c6.1,6.2,14.3,9.7,23,9.9c9.4-0.1,21.1-7.8,35-22.9
			c64.4-73.2,23.4-146.7-28.1-168.5l-0.8,1.3l0.6-1.3C300,46.8,236,59.4,212,121.2c-23.2-62-87.1-75.4-130.6-57.7l0.3,1.4l-0.6-1.4
			C25.2,86.4-19.1,170,68.9,249.7c0.9,0.8,1.7,1.6,2.6,2.4c0.4-16.2,2.8-32.2,6.9-47.9C84.8,180.9,92.3,157.9,101,135.3"/>
	</defs>
	<clipPath id="SVGID_00000162312488200265125040000017000007112962674856_">
		<use xlink:href="#SVGID_1_"  style="overflow:visible;"/>
	</clipPath>
	
		<linearGradient id="SVGID_00000080917814224056304280000005595380022771600520_" gradientUnits="userSpaceOnUse" x1="-654.6343" y1="859.6681" x2="-653.6343" y2="859.6681" gradientTransform="matrix(1123.0148 -20.0858 -20.0858 -1123.0148 752465.375 952439.25)">
		<stop  offset="0" style="stop-color:#E21768"/>
		<stop  offset="9.465171e-02" style="stop-color:#D91A6B"/>
		<stop  offset="0.2463" style="stop-color:#C22272"/>
		<stop  offset="0.4361" style="stop-color:#9C307E"/>
		<stop  offset="0.6564" style="stop-color:#67428F"/>
		<stop  offset="0.8997" style="stop-color:#245AA5"/>
		<stop  offset="1" style="stop-color:#0664AE"/>
	</linearGradient>
	
		<polygon style="clip-path:url(#SVGID_00000162312488200265125040000017000007112962674856_);fill:url(#SVGID_00000080917814224056304280000005595380022771600520_);" points="
		-23.4,45.9 435.8,37.7 440.2,284.2 -19,292.4 	"/>
</g>
<g>
	<defs>
		<path id="SVGID_00000060731119804619355600000005366563773657359492_" d="M329.3,273c-8.8-1.4-17.1-5.2-24-11.1
			c-25.8,32.8-52.6,49.4-80.3,49.7c-20.4,0.2-35.2-10.8-44.2-33.2c-14.2,16.9-29.2,27.5-45.2,32c55.1,50.6,74.8,69.9,74.8,69.9
			s0-0.8,0.1-2.5c0,1.6,0,2.4,0,2.4S240.5,351.9,329.3,273"/>
	</defs>
	<clipPath id="SVGID_00000168102802049704003860000011913929495950768016_">
		<use xlink:href="#SVGID_00000060731119804619355600000005366563773657359492_"  style="overflow:visible;"/>
	</clipPath>
	
		<linearGradient id="SVGID_00000096765975509045210240000015198900729991172747_" gradientUnits="userSpaceOnUse" x1="-654.6343" y1="859.665" x2="-653.6343" y2="859.665" gradientTransform="matrix(1123.0148 -20.0858 -20.0858 -1123.0148 752468.125 952592.375)">
		<stop  offset="0" style="stop-color:#E21768"/>
		<stop  offset="9.465171e-02" style="stop-color:#D91A6B"/>
		<stop  offset="0.2463" style="stop-color:#C22272"/>
		<stop  offset="0.4361" style="stop-color:#9C307E"/>
		<stop  offset="0.6564" style="stop-color:#67428F"/>
		<stop  offset="0.8997" style="stop-color:#245AA5"/>
		<stop  offset="1" style="stop-color:#0664AE"/>
	</linearGradient>
	
		<polygon style="clip-path:url(#SVGID_00000168102802049704003860000011913929495950768016_);fill:url(#SVGID_00000096765975509045210240000015198900729991172747_);" points="
		133.5,262 329.3,258.5 331.5,380.4 135.6,383.9 	"/>
</g>
</svg>
